PathFileType	4	(X/Y/Z)	/Users/itak/Documents/Research/Walk-IL/dataset/trc/00368_00011.trc
DataRate	CameraRate	NumFrames	NumMarkers	Units	OrigDataRate	OrigDataStartFrame	OrigNumFrames
100.000000	100.000000	4	61	mm	100.000000	417	557
Frame#	Time	LPSI			L3			STRN			T10			C7			CLAV			RBAK			LBAK			LSHO			LUPA			LAEL			LAOL			LWTS			LWPS			LFRA			LHPS			LHTS			RSHO			RUPA			RAEL			RAOL			RWTS			RWPS			RFRA			RIFD			RHTS			RBHD			LFHD			RFHD			LBHD			LHIP			RHIP			RASI			LASI			LKNE			LANK			LTIP			LTOE			LMT1			LMT5			LHEE			RKNE			RTHI			RANK			RTIP			RTOE			RMT1			RMT5			RHEE			RPSI			RHPS			LTHI			LIFD			*53			*54			*55			*56			*57			*58			*59			*60			
		X1	Y1	Z1	X2	Y2	Z2	X3	Y3	Z3	X4	Y4	Z4	X5	Y5	Z5	X6	Y6	Z6	X7	Y7	Z7	X8	Y8	Z8	X9	Y9	Z9	X10	Y10	Z10	X11	Y11	Z11	X12	Y12	Z12	X13	Y13	Z13	X14	Y14	Z14	X15	Y15	Z15	X16	Y16	Z16	X17	Y17	Z17	X18	Y18	Z18	X19	Y19	Z19	X20	Y20	Z20	X21	Y21	Z21	X22	Y22	Z22	X23	Y23	Z23	X24	Y24	Z24	X25	Y25	Z25	X26	Y26	Z26	X27	Y27	Z27	X28	Y28	Z28	X29	Y29	Z29	X30	Y30	Z30	X31	Y31	Z31	X32	Y32	Z32	X33	Y33	Z33	X34	Y34	Z34	X35	Y35	Z35	X36	Y36	Z36	X37	Y37	Z37	X38	Y38	Z38	X39	Y39	Z39	X40	Y40	Z40	X41	Y41	Z41	X42	Y42	Z42	X43	Y43	Z43	X44	Y44	Z44	X45	Y45	Z45	X46	Y46	Z46	X47	Y47	Z47	X48	Y48	Z48	X49	Y49	Z49	X50	Y50	Z50	X51	Y51	Z51	X52	Y52	Z52	X53	Y53	Z53	X54	Y54	Z54	X55	Y55	Z55	X56	Y56	Z56	X57	Y57	Z57	X58	Y58	Z58	X59	Y59	Z59	X60	Y60	Z60	X61	Y61	Z61	

418	4.17	96.90026092529297	941.922119140625	638.0238037109375	24.6156177520752	1001.837829589844	638.011962890625	54.99785232543945	1196.83251953125	864.2757568359375	28.91086387634277	1123.577270507812	622.1163940429688	52.96408843994141	1372.61083984375	660.9054565429688	58.02613067626953	1321.2109375	817.9788818359375	-19.67417144775391	1232.606079101562	623.3047485351562	151.7988739013672	1334.133422851562	641.1506958007812	215.776123046875	1350.706665039062	721.5132446289062	274.6794128417969	1228.68798828125	691.147705078125	277.7318115234375	1024.420166015625	688.2864379882812	209.1151885986328	1017.450927734375	638.4950561523438	244.4649200439453	775.0631713867188	768.1834106445312	290.8070678710938	766.8726806640625	717.349609375	283.5470275878906	919.2367553710938	692.009765625	280.1633911132812	697.8248291015625	706.5909423828125	256.2912902832031	693.9987182617188	766.598876953125	-106.4695663452148	1364.536743164062	728.44970703125	-171.2865447998047	1300.644409179688	727.0979614257812	-227.6747894287109	1042.822631835938	791.1146240234375	-153.02685546875	1019.146179199219	737.6767578125	-120.9788589477539	888.7830200195312	965.46923828125	-191.719970703125	858.9328002929688	966.64453125	-225.0084228515625	988.1730346679688	841.0463256835938	-103.5927505493164	743.9653930664062	1062.619506835938	-111.8843231201172	812.1453247070312	1040.641357421875	-26.38590240478516	1583.671752929688	720.458984375	107.392578125	1586.793701171875	879.1232299804688	6.525736331939697	1587.294311523438	879.4600219726562	114.9507675170898	1580.179931640625	692.8306274414062	200.0531158447266	885.6483154296875	720.6722412109375	-137.6077270507812	896.12548828125	734.827392578125	-88.39991760253906	926.1838989257812	836.968505859375	150.7456359863281	925.6400146484375	843.7727661132812	220.9917449951172	462.5614929199219	917.5851440429688	239.6619720458984	41.98835372924805	988.9500122070312	244.801025390625	251.7240295410156	952.6072998046875	187.5593414306641	106.8755187988281	1183.839599609375	142.0361022949219	74.79560089111328	1125.402587890625	256.1278991699219	71.17759704589844	1109.609008789062	170.1415710449219	32.63870239257812	960.2594604492188	-90.02750396728516	430.7300109863281	765.4105834960938	-122.9171600341797	686.972412109375	807.3822631835938	-73.00951385498047	57.72970199584961	585.7075805664062	-69.42353057861328	310.0173034667969	740.6825561523438	6.080096244812012	41.06983947753906	767.3861083984375	40.28803253173828	33.01622009277344	704.0223999023438	-74.69703674316406	39.83382034301758	687.2467651367188	-33.09023666381836	60.29668045043945	529.040771484375	-32.74558639526367	945.582275390625	646.3470458984375	-172.614990234375	791.8590087890625	1014.873901367188	226.5380249023438	593.3306884765625	865.1195678710938	229.5550231933594	610.0516967773438	750.91455078125	nan	nan	nan	nan	nan	nan	nan	nan	nan	nan	nan	nan	nan	nan	nan	nan	nan	nan	nan	nan	nan	nan	nan	nan	
419	4.18	100.7457733154297	941.1952514648438	644.9057006835938	28.42155456542969	1001.156005859375	644.5669555664062	57.99362182617188	1196.392944335938	870.9266967773438	32.83446502685547	1122.895629882812	628.6611328125	56.67835998535156	1371.977416992188	667.3661499023438	61.06774520874023	1320.71240234375	824.5414428710938	-15.6566333770752	1231.912231445312	629.512939453125	155.6398315429688	1333.48828125	648.0243530273438	219.2626647949219	1350.113647460938	728.6514282226562	278.278564453125	1227.987060546875	698.7826538085938	281.6242980957031	1023.65380859375	696.8641967773438	213.4009552001953	1016.495361328125	646.5801391601562	247.9063720703125	774.7003173828125	777.4571533203125	294.6279296875	766.344970703125	726.9765625	287.4698791503906	918.5357055664062	701.0355224609375	284.3570861816406	697.3355712890625	716.4921875	259.7926940917969	693.6474609375	776.1951293945312	-103.114875793457	1363.742797851562	734.2633056640625	-167.8080139160156	1299.760864257812	732.4132080078125	-224.0808258056641	1041.387817382812	794.253173828125	-149.0849304199219	1018.282409667969	741.0079956054688	-118.806999206543	884.4055786132812	967.0386962890625	-189.6345520019531	854.83837890625	967.422607421875	-221.7647247314453	986.052490234375	843.5439453125	-102.2453994750977	737.659912109375	1061.378173828125	-110.0955657958984	806.5277709960938	1040.907958984375	-23.02143096923828	1583.160522460938	726.29248046875	110.0560760498047	1586.503173828125	885.56982421875	9.200192451477051	1587.052612304688	885.4260864257812	118.4836044311523	1579.579956054688	699.3174438476562	203.272216796875	884.8694458007812	728.071044921875	-134.2901306152344	895.439208984375	740.5803833007812	-85.58818817138672	925.4332885742188	842.9888916015625	153.5799102783203	925.2197875976562	850.9984741210938	222.01611328125	462.2153930664062	926.1687622070312	239.5537567138672	41.55027770996094	990.5496826171875	244.7482299804688	250.6104278564453	958.5557861328125	186.0864868164062	100.9146270751953	1186.900756835938	141.0820922851562	69.86732482910156	1127.422485351562	255.027587890625	67.39161682128906	1111.9794921875	170.1159210205078	32.58371734619141	961.4418334960938	-87.66319274902344	430.2806701660156	769.8309326171875	-120.2845077514648	686.3545532226562	812.6194458007812	-72.23986053466797	59.01329803466797	585.974853515625	-67.84721374511719	309.6760864257812	743.8219604492188	6.105834484100342	41.05667114257812	767.5396728515625	40.59907913208008	33.10788345336914	704.2416381835938	-74.49973297119141	40.29633712768555	687.3941650390625	-32.21968841552734	62.27230453491211	529.3512573242188	-28.99928092956543	944.8844604492188	652.6016845703125	-170.9428863525391	786.728759765625	1014.433898925781	227.6335601806641	593.0769653320312	873.589111328125	233.4469299316406	609.6134643554688	760.6704711914062	nan	nan	nan	nan	nan	nan	nan	nan	nan	nan	nan	nan	nan	nan	nan	nan	nan	nan	nan	nan	nan	nan	nan	nan	
420	4.19	104.6791076660156	940.6455688476562	651.8289184570312	32.32314300537109	1000.669372558594	651.1253051757812	61.05144882202148	1196.1435546875	877.5484619140625	36.84623336791992	1122.400512695312	635.2181396484375	60.43680953979492	1371.546508789062	673.8239135742188	64.15050506591797	1320.408081054688	831.09521484375	-11.605299949646	1231.404541015625	635.6771240234375	159.5307922363281	1333.039428710938	654.8947143554688	222.7947692871094	1349.725219726562	735.7872924804688	281.9206237792969	1227.477416992188	706.4180297851562	285.6041259765625	1023.074829101562	705.4871215820312	217.7699584960938	1015.7138671875	654.7198486328125	251.4371643066406	774.5816040039062	786.8787231445312	298.528076171875	766.02734375	736.7574462890625	291.4770202636719	918.0291137695312	710.1240234375	288.6383361816406	697.0526733398438	726.5996704101562	263.4173889160156	693.568603515625	786.0042724609375	-99.71651458740234	1363.123291015625	740.0562133789062	-164.2705230712891	1299.035888671875	737.706298828125	-220.4101715087891	1040.127197265625	797.3633422851562	-145.0667724609375	1017.588500976562	744.32861328125	-116.7293090820312	880.0186767578125	968.4281005859375	-187.6597747802734	850.8055419921875	967.9658813476562	-218.4761962890625	984.0935668945312	845.9791259765625	-101.1416625976562	731.2845458984375	1059.778686523438	-108.4590301513672	800.8840942382812	1040.9130859375	-19.62613296508789	1582.838256835938	732.1351928710938	112.739860534668	1586.413940429688	892.033203125	11.89681720733643	1587.012939453125	891.4036254882812	122.0503845214844	1579.176391601562	705.8262939453125	206.5354461669922	884.2817993164062	735.4803466796875	-130.9196319580078	894.9038696289062	746.2962646484375	-82.79119110107422	924.871826171875	848.9868774414062	156.4082641601562	924.9974365234375	858.2809448242188	223.1343688964844	461.9754638671875	934.4816284179688	239.5238189697266	41.34006500244141	991.9139404296875	244.7952423095703	249.7200317382812	964.3642578125	184.6092224121094	94.95526123046875	1189.724853515625	140.1472015380859	65.03649139404297	1129.159790039062	253.9305725097656	63.69723129272461	1114.094604492188	170.1619873046875	32.7741584777832	962.3986206054688	-85.22903442382812	430.0125427246094	774.5266723632812	-117.6461715698242	685.9241943359375	817.9496459960938	-71.39435577392578	60.60090255737305	586.33203125	-66.30396270751953	309.5364379882812	747.1836547851562	6.144498348236084	41.05474090576172	767.7260131835938	40.90968322753906	33.28681182861328	704.529296875	-74.33576202392578	40.83905029296875	687.588134765625	-31.23398971557617	64.68016052246094	529.7965087890625	-25.18161773681641	944.3176879882812	658.8489379882812	-169.4362182617188	781.6582641601562	1013.724426269531	228.7702331542969	592.8671875	881.75634765625	237.4772033691406	609.4151000976562	770.7078857421875	nan	nan	nan	nan	nan	nan	nan	nan	nan	nan	nan	nan	nan	nan	nan	nan	nan	nan	nan	nan	nan	nan	nan	nan	
421	4.2	108.6768798828125	940.3167114257812	658.7783813476562	36.30341339111328	1000.412048339844	657.6755981445312	64.14437103271484	1196.101440429688	884.1276245117188	40.94228744506836	1122.127807617188	641.7745361328125	64.23970031738281	1371.346923828125	680.2743530273438	67.26415252685547	1320.31982421875	837.635009765625	-7.520893573760986	1231.119995117188	641.7846069335938	163.4735107421875	1332.817993164062	661.7676391601562	226.3660430908203	1349.57373046875	742.9336547851562	285.6083984375	1227.194702148438	714.0802612304688	289.6690368652344	1022.722778320312	714.1590576171875	222.2208862304688	1015.146545410156	662.9098510742188	255.0458679199219	774.7369384765625	796.428955078125	302.4991149902344	765.9536743164062	746.6791381835938	295.5619506835938	917.7531127929688	719.270751953125	292.9807739257812	697.0029296875	736.8826293945312	267.1525573730469	693.7864990234375	796.0086059570312	-96.27594757080078	1362.712646484375	745.8154907226562	-160.6773834228516	1298.5048828125	742.9650268554688	-216.6377563476562	1039.082275390625	800.4569091796875	-140.9509887695312	1017.106689453125	747.652587890625	-114.7481307983398	875.6591796875	969.63232421875	-185.8003692626953	846.8773193359375	968.2647705078125	-215.1271057128906	982.34326171875	848.3583984375	-100.3027801513672	724.8992919921875	1057.829711914062	-107.006217956543	795.2374267578125	1040.641845703125	-16.20359420776367	1582.7255859375	737.9844360351562	115.4348907470703	1586.540893554688	898.5117797851562	14.60576343536377	1587.184814453125	897.390869140625	125.6422119140625	1578.994384765625	712.3565063476562	209.8316192626953	883.938720703125	742.8875122070312	-127.5093002319336	894.5482177734375	751.96826171875	-80.01432800292969	924.5313110351562	854.9522094726562	159.2133483886719	925.00146484375	865.5992431640625	224.3709716796875	461.8648681640625	942.4891357421875	239.5625	41.33125686645508	993.1368408203125	244.9768524169922	249.0723724365234	970.0271606445312	183.2088317871094	89.17751312255859	1192.3525390625	139.2854766845703	60.47198486328125	1130.703369140625	252.8929595947266	60.19961929321289	1116.012329101562	170.2663116455078	33.18282318115234	963.2440795898438	-82.75071716308594	429.9494323730469	779.5850219726562	-115.0101699829102	685.7036743164062	823.3938598632812	-70.48265075683594	62.54174041748047	586.819091796875	-64.82235717773438	309.6275329589844	750.8387451171875	6.19380521774292	41.06563186645508	767.9420776367188	41.21211624145508	33.56119155883789	704.8980102539062	-74.21268463134766	41.45595169067383	687.8424072265625	-30.14204597473145	67.58393096923828	530.4275512695312	-21.31260681152344	943.9171752929688	665.0821533203125	-168.1099853515625	776.7081909179688	1012.7509765625	230.0089263916016	592.7542114257812	889.6154174804688	241.6179656982422	609.4814453125	781.0006713867188	nan	nan	nan	nan	nan	nan	nan	nan	nan	nan	nan	nan	nan	nan	nan	nan	nan	nan	nan	nan	nan	nan	nan	nan	
